PathFileType	4	(X/Y/Z)	C:/Users/opensim2020/Desktop/walking_exp_matlab/subject03_walking05_straight_04.trc	
DataRate	CameraRate	NumFrames	NumMarkers	Units	OrigDataRate	OrigDataStartFrame	OrigNumFrames	
100.00	100.00	6	45	mm	100.00	2855	294	
Frame#	Time	LFHD			RFHD			LBHD			RBHD			C7			T10			CLAV			STRN			RBAK			LSHO			LUPA			LELB			LFRM			LWRA			LWRB			LFIN			RSHO			RUPA			RELB			RFRM			RWRA			RWRB			RFIN			LASI			RASI			LPSI			RPSI			LTHI			LKNE			LTIB			LANK			LHEE			LTOE			RTHI			RKNE			RTIB			RANK			RHEE			RTOE			*39			*40			*41			*42			*43			*44			
		X1	Y1	Z1	X2	Y2	Z2	X3	Y3	Z3	X4	Y4	Z4	X5	Y5	Z5	X6	Y6	Z6	X7	Y7	Z7	X8	Y8	Z8	X9	Y9	Z9	X10	Y10	Z10	X11	Y11	Z11	X12	Y12	Z12	X13	Y13	Z13	X14	Y14	Z14	X15	Y15	Z15	X16	Y16	Z16	X17	Y17	Z17	X18	Y18	Z18	X19	Y19	Z19	X20	Y20	Z20	X21	Y21	Z21	X22	Y22	Z22	X23	Y23	Z23	X24	Y24	Z24	X25	Y25	Z25	X26	Y26	Z26	X27	Y27	Z27	X28	Y28	Z28	X29	Y29	Z29	X30	Y30	Z30	X31	Y31	Z31	X32	Y32	Z32	X33	Y33	Z33	X34	Y34	Z34	X35	Y35	Z35	X36	Y36	Z36	X37	Y37	Z37	X38	Y38	Z38	X39	Y39	Z39	X40	Y40	Z40	X41	Y41	Z41	X42	Y42	Z42	X43	Y43	Z43	X44	Y44	Z44	X45	Y45	Z45	

1	0.000	1457.94995	1584.98438	1599.76111	1324.50024	1587.55005	1598.48767	1457.23828	1718.45129	1575.98230	1325.82703	1716.41406	1573.87646	1392.58313	1771.84253	1414.66992	1388.16211	1821.02563	1099.56689	1405.55957	1654.80310	1330.93762	1411.22327	1622.06555	1164.83301	1285.43311	1822.81067	1241.98145	1555.79175	1720.20276	1369.60510	1616.84949	1768.21643	1173.03979	1626.74780	1782.29321	1050.20984	1630.35059	1776.97083	919.87000	1604.66931	1769.76050	800.36920	1646.96716	1804.30115	809.14667	1637.77087	1803.23767	723.86707	1241.56726	1678.65454	1359.85022	1172.75610	1648.71985	1138.13953	1168.32996	1616.65149	1029.58411	1184.62561	1574.55420	900.82013	1237.30566	1536.81787	817.39856	1187.64417	1552.40515	802.97064	1210.40137	1518.41309	741.21454	1518.88586	1658.34753	938.88971	1281.51538	1646.06836	929.87146	1462.67114	1820.01270	951.54517	1313.48572	1811.01563	959.75793	1585.99512	1647.46826	644.00006	1555.89246	1576.58215	478.96082	1572.63904	1571.81152	287.83640	1556.18164	1519.69568	80.72457	1516.42212	1545.45178	34.46609	1546.51550	1366.20789	77.28855	1252.00684	1730.78625	635.59711	1295.31372	1752.07141	458.09756	1291.54138	1831.63257	282.58401	1337.68774	1912.42480	80.05949	1379.47693	1967.22888	53.70533	1373.23730	1778.73950	37.28836																		 
2	0.010	1459.83203	1576.03259	1599.43408	1326.39246	1579.26025	1597.77808	1459.89221	1709.37634	1574.94946	1328.60437	1708.21570	1572.56030	1395.80981	1762.45972	1413.77185	1391.17126	1812.30945	1098.86633	1407.89429	1645.32068	1330.05115	1413.05115	1613.02063	1163.80920	1288.32666	1814.02820	1241.27051	1558.69458	1709.55127	1368.48962	1619.62073	1758.19434	1171.97485	1629.28931	1773.28699	1049.28674	1632.41284	1769.57739	918.81793	1607.37585	1763.85059	800.10553	1649.01526	1798.27942	808.39148	1639.64001	1798.60010	723.19849	1244.23108	1670.13367	1359.19678	1174.92957	1641.04065	1137.55298	1170.26697	1609.28003	1028.92358	1186.58911	1566.95508	900.28668	1239.41125	1528.55957	817.13116	1189.89111	1544.58594	802.50684	1212.69080	1510.21448	741.03064	1520.72327	1648.82654	937.66083	1283.12732	1638.44324	929.09937	1465.57507	1810.97095	950.45923	1316.38501	1803.13843	958.84186	1587.61243	1639.59326	642.27167	1555.84253	1570.10510	476.85309	1573.70142	1560.24219	287.06732	1558.62097	1502.13489	81.31707	1519.39954	1527.09375	34.30560	1546.91162	1347.99768	80.89616	1253.20532	1724.87903	635.40466	1296.07922	1747.02588	457.85645	1292.40710	1828.89954	282.81711	1338.01270	1912.02771	81.42815	1379.86707	1966.91272	55.68293	1373.19104	1778.64343	37.22652																		 
3	0.020	1461.73572	1567.02795	1599.17798	1328.36340	1570.99609	1597.24377	1462.55286	1700.23535	1574.00024	1331.17603	1699.65588	1571.29968	1399.17749	1753.21606	1413.07190	1394.25098	1803.37805	1098.25122	1410.25623	1635.75537	1329.19360	1414.90234	1603.86963	1162.83105	1291.60437	1805.44934	1240.85535	1561.65076	1698.83899	1367.47705	1622.37915	1748.04480	1170.97034	1631.78796	1764.00757	1048.32910	1634.51672	1761.85950	917.85138	1608.85486	1758.19678	798.96533	1651.23328	1791.80640	807.81970	1641.59094	1793.38391	722.55640	1246.66345	1661.64941	1358.48828	1177.20886	1633.36646	1136.95264	1172.29749	1601.95764	1028.27161	1188.58289	1559.41406	899.64874	1241.34668	1520.73230	816.64667	1192.05566	1536.96863	801.97327	1214.82935	1502.29785	740.64679	1522.71582	1639.25391	936.73621	1284.60669	1631.23486	928.24634	1468.55396	1801.78613	949.39471	1319.32324	1795.04358	958.03296	1588.83289	1631.67834	640.56769	1555.91589	1563.49670	474.87527	1574.73523	1549.49719	286.47281	1560.75195	1486.86389	81.74855	1522.20239	1511.27698	34.28022	1546.83716	1332.18445	83.64209	1254.70862	1718.63782	635.16534	1296.95972	1741.72437	457.64801	1293.02649	1825.52844	283.65463	1338.26062	1911.47241	83.03486	1380.30286	1966.57373	57.94140	1373.14636	1778.53088	37.14851																		 
4	0.030	1463.71057	1557.94714	1598.98279	1330.33984	1562.45374	1596.66504	1465.33459	1691.04285	1573.18774	1333.84485	1691.06567	1570.19067	1402.52380	1743.76880	1412.40308	1397.32031	1794.31860	1097.66992	1412.63330	1626.17175	1328.44849	1416.76123	1594.58997	1161.97424	1294.93750	1796.81970	1240.50854	1564.60876	1688.02222	1366.49524	1625.20630	1737.71936	1170.04077	1634.40552	1754.47559	1047.47791	1636.66113	1753.79041	916.99554	1610.53418	1751.97412	798.02051	1653.45300	1784.72729	807.18414	1643.63171	1787.48730	722.07660	1249.24695	1652.99634	1357.82495	1179.47437	1625.66846	1136.29700	1174.39038	1594.62524	1027.66846	1190.54431	1552.06665	899.11084	1243.24377	1512.82373	816.44617	1194.20618	1529.59119	801.42310	1216.78967	1494.62634	740.15070	1524.49097	1629.61218	935.72998	1286.26990	1623.27991	927.54413	1471.58594	1792.50562	948.52283	1322.30981	1786.77271	957.38654	1589.63184	1623.67224	638.99146	1556.20300	1556.45361	473.20215	1575.79382	1539.67078	285.89056	1562.43298	1474.03760	81.74139	1524.53137	1498.26843	33.73222	1546.21143	1319.26404	85.27625	1256.23438	1712.16260	634.98853	1298.02380	1735.91638	457.44211	1293.68250	1821.96130	284.44864	1338.52734	1910.68066	84.74846	1380.57642	1966.06287	60.42528	1373.08118	1778.39404	37.05894																		 
5	0.040	1465.72925	1548.75439	1598.82666	1332.39673	1554.01904	1596.43054	1468.01086	1681.76135	1572.42212	1336.93347	1682.59961	1569.42102	1405.75671	1734.20129	1411.77209	1400.46021	1785.09680	1097.20874	1415.09021	1616.54663	1327.96191	1418.67944	1585.13818	1161.30066	1298.33508	1788.13586	1240.24390	1567.52429	1677.19067	1365.69580	1628.05518	1727.24695	1169.27063	1637.11572	1744.77856	1046.80078	1638.86902	1745.30920	916.24170	1612.08545	1745.36035	797.24854	1655.80542	1777.18860	806.73743	1645.77905	1781.01648	721.69574	1251.78638	1644.77246	1357.84143	1181.75928	1618.89612	1135.90039	1176.48645	1587.32800	1027.18079	1192.51685	1544.79919	898.60364	1245.13745	1505.27148	816.02667	1196.18555	1522.33655	800.87183	1218.85229	1487.18103	739.69061	1526.28076	1619.83142	934.82916	1287.95471	1615.26099	927.04254	1474.63379	1783.00647	947.84619	1325.30530	1778.33533	956.95892	1590.31250	1615.60217	637.58276	1556.75146	1548.89246	471.78598	1576.95850	1530.74170	285.20001	1563.39783	1463.95520	80.85573	1526.41418	1488.53540	32.75857	1544.93433	1309.46851	85.63400	1257.82166	1705.31335	634.85211	1299.05310	1729.71936	457.28027	1294.14185	1817.90942	285.40491	1338.54871	1909.73645	86.85992	1380.77869	1965.42529	63.18742	1373.03149	1778.24414	37.01749																		 
6	0.050	1467.75439	1539.53064	1598.77063	1334.45605	1545.47937	1596.33386	1470.79541	1672.39880	1571.84070	1339.66943	1673.84607	1568.64221	1409.04138	1724.66614	1411.30505	1403.67017	1775.84875	1096.85986	1417.48596	1606.70325	1327.44324	1420.64954	1575.66528	1160.83960	1301.81299	1779.36548	1240.02588	1570.44617	1666.30701	1365.07056	1630.92944	1716.66223	1168.61340	1639.83362	1734.76721	1046.20520	1641.17041	1736.44995	915.68414	1613.87854	1738.13660	796.66754	1658.24170	1769.04517	806.42657	1647.97546	1773.86731	721.45117	1254.47925	1636.12585	1357.10596	1184.09851	1611.32117	1135.56689	1178.59583	1580.05103	1026.77808	1194.44946	1537.66675	898.11981	1246.91003	1497.97241	815.60687	1198.12354	1515.41785	800.34882	1220.62488	1480.19604	739.26416	1528.06531	1610.00342	934.09692	1289.68494	1606.96008	926.72156	1477.64429	1773.38159	947.41479	1328.26343	1769.72241	956.74365	1591.00403	1607.29456	636.45105	1557.60425	1540.56506	470.75528	1578.13684	1522.73779	284.20792	1564.27039	1457.16052	79.69344	1527.48657	1482.09900	31.12006	1543.19617	1302.60083	83.87010	1259.40430	1698.17371	634.77551	1300.06995	1723.14038	457.13925	1294.75232	1813.74573	286.33893	1338.74426	1908.74585	89.09029	1380.86914	1964.70508	66.25995	1372.95898	1778.02490	36.93431																		 
